#!OML:ASF F:\VICON\USERDATA\INSTALL\rory3\rory3.ASF
:FULLY-SPECIFIED
:DEGREES
28
root -0.39774499792346274 17.39320614714093 -4.060507678463793 3.2001402417619103 0.6544204149631812 -0.6071340879393725
lfemur 4.243825680276062 2.9472147692841477 -23.72530695895688
ltibia 40.02747164449097
lfoot -9.010540540026193 -2.899099981024695
ltoes -27.24555552949019
rfemur -49.1274557858312 -0.3750611920414224 23.37921767940921
rtibia 84.99691663343117
rfoot 2.469561718600879 -3.4734551850338606
rtoes 5.528808745128358
lowerback 17.28510255802529 -0.20011105146185648 -4.011884959357712
upperback -0.9547285038073411 -0.8174366373770785 1.6846783455366894
thorax -10.015675263841656 -0.14837127279013773 5.541733103646043
lowerneck -21.82386781897424 -3.3036242621560383 -1.584284447041704
upperneck 15.89073937808213 -4.688494924398349 3.724329393025903
head 8.357316228772163 -1.8857021452044587 0.9597558217649622
lclavicle -1.7292361305953162e-15 1.7833369973957683e-15
lhumerus -32.04203041566525 -16.160992416614796 95.10269168006458
lradius 121.83065145705204
lwrist 37.03957044935531
lhand -25.11736223995194 1.6236456046276393
lfingers 7.12502
lthumb 0.8398574582097164 31.438876146657837
rclavicle -1.7255623473606759e-15 1.7872260804663028e-15
rhumerus -57.84929113116608 9.66245987064747 -99.92821636790623
rradius 108.75364857038706
rwrist -13.853647959387922
rhand -13.170452794136908 38.813911685630536
rfingers 7.12502
rthumb 10.810409306373579 10.017498656049185
29
root -0.33371612316356125 17.6135362662038 -3.223412963930768 4.237971212846539 0.5541713231533395 -1.1450884603657279
lfemur 6.992958324131424 2.3005194285825814 -23.33875557933075
ltibia 37.88775393142676
lfoot -0.7617081265764711 -6.689991137370988
ltoes -27.719750207033734
rfemur -49.1881129689637 -0.07743788022093312 24.355743265179058
rtibia 74.96597158755972
rfoot 1.0252107102659282 -3.403316999787998
rtoes 2.125090265215855
lowerback 16.16943919496371 -0.7387434741389349 -3.036021982407699
upperback -1.0836654701865656 -1.370127914183898 1.9407459078596032
thorax -9.780897071732339 -0.42084846653072805 5.510332342679977
lowerneck -21.984302615270334 -3.1877416828174012 -1.663037964417128
upperneck 16.311095330865484 -4.498631181702809 3.5658607676451384
head 8.43318399575111 -1.804884634575311 0.9192106805337399
lclavicle -1.7294866311122146e-15 1.7831553741792896e-15
lhumerus -31.817848742178274 -15.823662636837133 94.18802196460712
lradius 123.43422746667207
lwrist 37.02235623771247
lhand -24.718378566800602 2.2390647146899934
lfingers 7.12502
lthumb 1.1262609853141683 31.988800129108895
rclavicle -1.7236248310054193e-15 1.7885246476343316e-15
rhumerus -59.16621024244538 9.790857422850452 -99.55771149950452
rradius 108.86712983790045
rwrist -13.69621191433908
rhand -12.956965174512769 38.74070503943367
rfingers 7.12502
rthumb 11.0627856681176 10.37096463132417
30
root -0.28700528628993666 17.78480724198103 -2.4021410475437612 4.605599291230938 -1.121895152843555 -1.513122185751802
lfemur 9.440398126330399 2.863270088662747 -23.33487562845268
ltibia 36.00699015062998
lfoot 8.085240889296681 -9.467895464580218
ltoes -29.51182107408325
rfemur -48.08412016005037 1.5467141127114319 25.262093989342123
rtibia 64.2110290991436
rfoot -0.010426700403609601 -2.44795290429273
rtoes -1.908256016939918
lowerback 15.647190111657434 -0.5412553539385536 -2.594975905208665
upperback -1.4699113972133409 -1.0565492235231173 2.294521723379618
thorax -9.784650820654432 -0.273148203144126 5.6616447326079795
lowerneck -21.585042915337873 -3.069607752371822 -1.7146778168220036
upperneck 16.443814515894704 -4.265638998135275 3.3970176259762086
head 8.447077973579587 -1.7290603902113708 0.8917238106225591
lclavicle -1.7289563742901844e-15 1.7835393752771362e-15
lhumerus -32.0854451630796 -15.82895161239618 93.3916817818507
lradius 123.8243315960959
lwrist 36.04932833275698
lhand -24.00065748620349 2.5932457877337467
lfingers 7.12502
lthumb 1.8006556389385344 32.18106979205748
rclavicle -1.7248040724619945e-15 1.787522272287744e-15
rhumerus -60.48089115994875 9.959417278286304 -99.16474737707249
rradius 108.93296628320381
rwrist -13.575231949801438
rhand -13.344413073205915 38.56962978871259
rfingers 7.12502
rthumb 10.691671583873507 10.294439573472454
31
root -0.23022965844896676 17.971041442797734 -1.28130907893223 4.877652224159202 -1.8333092129791821 -1.6696444243605106
lfemur 11.80177560647885 2.191949501047596 -23.747992436289632
ltibia 34.813117239288545
lfoot 15.420879727522106 -11.076833013661066
ltoes -25.197385938526704
rfemur -46.213999041230934 1.89094826287505 25.732529108609135
rtibia 52.794721202069894
rfoot -0.7834231925580939 -0.5477134355279905
rtoes -6.5211165801909114
lowerback 15.223568229043748 -0.6945327990341268 -2.081977985551628
upperback -1.7561047140195947 -1.162735827733083 2.4933022910684453
thorax -9.719683648672731 -0.3265964164640981 5.662222783201062
lowerneck -21.309412401115395 -2.9600544426678015 -1.7514257922684637
upperneck 16.5271885958772 -4.066956893066608 3.2776672125838533
head 8.456108643850186 -1.6628046889901418 0.8741859437752422
lclavicle -1.7294659161782176e-15 1.7831699494569728e-15
lhumerus -32.5692512115163 -16.17049842403764 92.77310305423808
lradius 123.46498781587191
lwrist 34.887027747292734
lhand -23.561401000726608 2.4960022135053705
lfingers 7.12502
lthumb 2.2474232553836866 31.9769646739252
rclavicle -1.7242083530796246e-15 1.788025907136333e-15
rhumerus -61.569493806807266 10.00629241769476 -98.64550267228881
rradius 109.18101990422211
rwrist -13.318893347395516
rhand -13.99802067518546 38.75474493714597
rfingers 7.12502
rthumb 10.955481192426836 10.58159399616499
32
root -0.1785046786589603 18.112481663145722 -0.25179903078601207 5.497320879728713 -2.3849602115828623 -1.8414141236022732
lfemur 13.387759576163633 0.9255541628290478 -24.279119479132092
ltibia 34.75243304428525
lfoot 20.15870129949414 -12.089494311495434
ltoes -18.43018325294297
rfemur -44.40554033276625 1.8347493430635782 26.235519315008613
rtibia 41.96577937763338
rfoot -1.2192547897373966 1.503160130586557
rtoes -10.633867311614113
lowerback 14.615884900069045 -0.8688781489063662 -1.8045636811569474
upperback -2.0668152686083 -1.3491683501346792 2.6432123221668213
thorax -9.794074175861711 -0.40799763046598525 5.687345812695276
lowerneck -21.09513758255213 -2.852317010531358 -1.8145417512995152
upperneck 16.498866752361327 -3.8658198843984266 3.1050476636616215
head 8.531968136549699 -1.5562002427269341 0.7847082435243701
lclavicle -1.7287374675020327e-15 1.783698410493608e-15
lhumerus -32.96653001650644 -16.788214199348406 92.49572788959331
lradius 122.76613041095592
lwrist 33.91832673926917
lhand -23.81818828241932 1.6050897441553802
lfingers 7.12502
lthumb 2.134071833101722 31.22080134108245
rclavicle -1.7240960449401815e-15 1.788013572766146e-15
rhumerus -62.40964031637749 9.859260906925648 -98.00029918325508
rradius 109.66305263358527
rwrist -13.103301505826645
rhand -14.342078534549358 38.6978499889672
rfingers 7.12502
rthumb 10.800726176428512 10.523780662014188
33
root -0.1438715436820551 18.210338340772083 1.2164359257666977 5.7616591657308796 -3.0124392906813244 -1.5837588050415703
lfemur 14.752328499444841 -0.22375738359094471 -25.238789995829094
ltibia 36.25414424026752
lfoot 22.305897782883374 -12.722686398261082
ltoes -14.297146459673003
rfemur -42.42911392627276 1.2186822246022178 26.532898707161188
rtibia 32.468029369099995
rfoot -1.6151125364346512 2.421756555051533
rtoes -13.782222925307561
lowerback 14.2918595271669 -0.9542365628245606 -2.079775761727076
upperback -2.253929298808342 -1.6145077565115895 2.5931078736993953
thorax -9.667200232030629 -0.5457232876047385 5.589991338177403
lowerneck -21.16768579523017 -2.8042575067368176 -1.8432889771194556
upperneck 16.40972449433781 -3.7355632862011094 2.908869608957583
head 8.57297728179621 -1.4915907897615064 0.7365731189849751
lclavicle -1.7289450737062964e-15 1.783547977585112e-15
lhumerus -33.26173468744534 -17.523107762577403 92.52627646420775
lradius 121.94536026515176
lwrist 33.25155030499983
lhand -24.342417890742073 0.7670120024718712
lfingers 7.12502
lthumb 1.8509867063096 30.558206802303634
rclavicle -1.7241849643712471e-15 1.7878094833640475e-15
rhumerus -62.94076251556244 9.569148309544579 -97.2956851803103
rradius 110.02448559587788
rwrist -12.87671859659563
rhand -14.332128263314441 38.785308694095164
rfingers 7.12502
rthumb 11.074848343109734 10.694540961220033
34
root -0.11430653991690541 18.274208701909142 2.508342997447687 6.009963002305007 -3.0596109032001437 -0.7268425364636002
lfemur 15.418819730523749 -1.7080986228102877 -26.711129671874787
ltibia 39.34090096839641
lfoot 22.76527589057376 -13.16465717539317
ltoes -12.538462148353393
rfemur -40.75551075696181 -0.1239040955524433 26.40576935858264
rtibia 25.584827347854294
rfoot -1.9655634032864926 0.9312091464148056
rtoes -18.007806443500108
lowerback 14.018932548396402 -1.1806409750315887 -2.7164395284969602
upperback -2.2510203778245614 -2.0251955892222635 2.218273627199568
thorax -9.60055145572796 -0.6918747606462728 5.522570546833546
lowerneck -21.151250155731173 -2.7938284219533935 -1.829982052288785
upperneck 16.133427720961734 -3.6724799705714726 2.7375172740651
head 8.550363798878422 -1.470110412740561 0.6988745274787134
lclavicle -1.7277886834721987e-15 1.7843867327838e-15
lhumerus -33.52844172900317 -18.147061493499045 92.78346819908846
lradius 120.8968015187934
lwrist 33.055133397525616
lhand -24.735791852988328 0.9156577062578883
lfingers 7.12502
lthumb 1.521117721582413 30.730036449240586
rclavicle -1.725325335673003e-15 1.7868780521617446e-15
rhumerus -62.97605964408083 9.049986899522517 -96.54587333354415
rradius 110.22973959217185
rwrist -12.660724147077557
rhand -14.323001191561566 38.71029924956433
rfingers 7.12502
rthumb 11.109724064782505 10.66148115706287
